<?xml version="1.0" encoding="utf-8"?>
<!-- Generator: Adobe Illustrator 22.0.1, SVG Export Plug-In . SVG Version: 6.00 Build 0)  -->
<svg version="1.1" xmlns="http://www.w3.org/2000/svg" xmlns:xlink="http://www.w3.org/1999/xlink" x="0px" y="0px" width="540.3px"
	 height="547.9px" viewBox="0 0 540.3 547.9" style="enable-background:new 0 0 540.3 547.9;" xml:space="preserve">
<g id="Background">
</g>
<g id="Objects">
	<g>
		
			<radialGradient id="SVGID_1_" cx="271.9998" cy="531.6274" r="162.1128" gradientTransform="matrix(1 0 0 9.439100e-02 0 481.4466)" gradientUnits="userSpaceOnUse">
			<stop  offset="0" style="stop-color:#808080"/>
			<stop  offset="0.2106" style="stop-color:#858585;stop-opacity:0.7894"/>
			<stop  offset="0.4597" style="stop-color:#939393;stop-opacity:0.5403"/>
			<stop  offset="0.7283" style="stop-color:#ABABAB;stop-opacity:0.2717"/>
			<stop  offset="1" style="stop-color:#CBCBCB;stop-opacity:0"/>
		</radialGradient>
		<path style="fill:url(#SVGID_1_);" d="M437.5,531.6c0,9.6-74.1,17.3-165.5,17.3c-91.4,0-165.5-7.7-165.5-17.3
			c0-9.6,74.1-17.3,165.5-17.3C363.4,514.3,437.5,522.1,437.5,531.6z"/>
		<g>
			<g>
				<path style="fill:#FFC700;" d="M290.2,524.1c-10,10.1-26.3,10.1-36.4,0L17.3,287.5c-10-10-10-26.3,0-36.4L253.8,14.6
					c10-10,26.3-10,36.4,0l236.5,236.5c10,10,10,26.3,0,36.4L290.2,524.1z"/>
			</g>
			<defs>
				<filter id="Adobe_OpacityMaskFilter" filterUnits="userSpaceOnUse" x="9.7" y="7.1" width="524.5" height="524.5">
					
						<feColorMatrix  type="matrix" values="-1 0 0 0 1  0 -1 0 0 1  0 0 -1 0 1  0 0 0 1 0" color-interpolation-filters="sRGB" result="source"/>
				</filter>
			</defs>
			<mask maskUnits="userSpaceOnUse" x="9.7" y="7.1" width="524.5" height="524.5" id="SVGID_2_">
				<g style="filter:url(#Adobe_OpacityMaskFilter);">
					
						<image style="overflow:visible;" width="1102" height="1102" xlink:href="D69165DDE1937846.jpg"  transform="matrix(0.48 0 0 0.48 7.7266 5.0811)">
					</image>
				</g>
			</mask>
			<g style="opacity:0.3;mask:url(#SVGID_2_);">
				<path style="fill:#FF0000;" d="M290.2,524.1c-10,10.1-26.3,10.1-36.4,0L17.3,287.5c-10-10-10-26.3,0-36.4L253.8,14.6
					c10-10,26.3-10,36.4,0l236.5,236.5c10,10,10,26.3,0,36.4L290.2,524.1z"/>
			</g>
		</g>
		<g>
			<path style="fill:#1A1A1A;" d="M288.1,494.5c-8.9,8.9-23.3,8.9-32.2,0l-209-209c-8.9-8.9-8.9-23.3,0-32.2l209-209
				c8.9-8.9,23.3-8.9,32.2,0l209,209c8.9,8.9,8.9,23.3,0,32.2L288.1,494.5z"/>
		</g>
		<g>
			<linearGradient id="SVGID_3_" gradientUnits="userSpaceOnUse" x1="272.0001" y1="462.3902" x2="272.0001" y2="76.3179">
				<stop  offset="0" style="stop-color:#F7B306"/>
				<stop  offset="8.074293e-02" style="stop-color:#FABA04"/>
				<stop  offset="0.2635" style="stop-color:#FEC401"/>
				<stop  offset="0.4976" style="stop-color:#FFC700"/>
				<stop  offset="0.7409" style="stop-color:#FEC401"/>
				<stop  offset="0.9138" style="stop-color:#FABB04"/>
				<stop  offset="1" style="stop-color:#F7B306"/>
			</linearGradient>
			<path style="fill:url(#SVGID_3_);" d="M285.4,456.8c-7.4,7.4-19.4,7.4-26.8,0L84.5,282.7c-7.4-7.4-7.4-19.4,0-26.8L258.6,81.9
				c7.4-7.4,19.4-7.4,26.8,0L459.5,256c7.4,7.4,7.4,19.4,0,26.8L285.4,456.8z"/>
		</g>
		<path style="opacity:0.3;fill:#FFFFFF;" d="M268.2,165.6c75.2,0,149.2,15.5,217.4,44.5L290.2,14.6c-10-10-26.3-10-36.4,0
			L63.6,204.8C128.3,179.2,197.7,165.6,268.2,165.6z"/>
		<g>
			<text transform="matrix(1 0 0 1 156.2975 251.8662)" style="fill:#1A1A1A; font-family:'Lato-Bold'; font-size:54.9986px;">COMING</text>
			<text transform="matrix(1 0 0 1 154.7921 327.1387)" style="fill:#1A1A1A; font-family:'Lato-Bold'; font-size:79.8698px;">SOON</text>
		</g>
		<radialGradient id="SVGID_4_" cx="360.3987" cy="135.6499" r="116.2167" gradientUnits="userSpaceOnUse">
			<stop  offset="0" style="stop-color:#FFFFFF"/>
			<stop  offset="0.8944" style="stop-color:#FFFFFF;stop-opacity:0"/>
		</radialGradient>
		<path style="fill:url(#SVGID_4_);" d="M476.6,135.7c0,64.2-52,116.2-116.2,116.2c-64.2,0-116.2-52-116.2-116.2
			c0-64.2,52-116.2,116.2-116.2C424.6,19.4,476.6,71.5,476.6,135.7z"/>
	</g>
</g>
</svg>
