<svg id="Logo" xmlns="http://www.w3.org/2000/svg" viewBox="0 0 385.56 178.26"><defs><style>.cls-1,.cls-4{fill:#fff;}.cls-2{fill:#231f20;}.cls-3{fill:#49311c;}.cls-4{opacity:0.2;}.cls-5{font-size:48.47px;font-family:STIXGeneral-Regular, STIXGeneral;}.cls-6{letter-spacing:0.01em;}.cls-7{letter-spacing:0em;}.cls-8{letter-spacing:0.02em;}.cls-9{letter-spacing:-0.01em;}.cls-10{letter-spacing:-0.01em;}.cls-11{letter-spacing:0em;}.cls-12{letter-spacing:0em;}</style></defs><title>eoa_logo</title><path class="cls-1" d="M127.44,6l-2-1.51-1.81,1.73c-7.8,7.46-16.46,11.25-25.71,11.25-7.94,0-16-2.9-23.45-8.38L72.75,7.77,71,9.06a39.23,39.23,0,0,1-23.29,7.55A43.08,43.08,0,0,1,18,4.37L16.14,2.65l-2,1.5C11.58,6.1,8.82,10.32,6.39,14c-1,1.61-2,3.13-2.75,4l-1.25,1.6,1,1.81c1.3,2.45,2.59,4.67,3.73,6.63,4.18,7.25,6.74,11.67,6.1,18.64C3.84,75.27,2.53,98.05,9.27,114.48c5.58,13.61,15.41,19.94,22.32,23.52,3.37,1.83,7,3.49,10.48,5.1C54.2,148.7,65.66,154,70,166h5.6c4.29-12,15.76-17.33,27.87-22.92,3.51-1.61,7.13-3.29,10.5-5.12,5.69-2.94,15.19-7.87,20.37-22,5.75-15.67,4.83-38.58-2.84-70-.91-9.16,1.72-13,8-22.12l1.1-1.6-.94-1.7A45.87,45.87,0,0,0,127.44,6Zm1.08,40.59c17.15,70.32-3.88,82.49-15.95,88.73-14.68,8-33.71,12.6-39.83,29.71-6.08-17.1-25.12-21.76-39.8-29.72C20.88,129-5.21,112.18,16.1,47.42,17.19,37,12,31.37,6,20c2.4-3.05,6.74-10.94,10-13.39A45.93,45.93,0,0,0,47.71,19.68a42,42,0,0,0,25-8.13c7.7,5.7,16.35,9,25.18,9,9.41,0,19-3.7,27.75-12.07C128.91,10.9,133,14.87,137,22.14,130.55,31.57,127.43,36.17,128.52,46.56Z"/><path class="cls-2" d="M142.29,21.29l-1-1.7A47.83,47.83,0,0,0,128.62,4.32l-2-1.51-1.31-1L124.11,3,122.3,4.68c-7.43,7.11-15.62,10.71-24.37,10.71-7.52,0-15.23-2.76-22.29-8L73.91,6.11l-1.16-.86-1.17.86L69.85,7.4a37.32,37.32,0,0,1-22.14,7.17A41.13,41.13,0,0,1,19.3,2.87L17.5,1.15,16.29,0,15,1,13,2.5C10.12,4.67,7.27,9,4.75,12.91c-1,1.57-2,3.05-2.65,3.89L.84,18.4,0,19.47l.65,1.2,1,1.8C2.94,25,4.23,27.19,5.37,29.16c4.08,7.07,6.35,11,5.85,17.18C1.8,75.23.52,98.42,7.44,115.29c5.83,14.23,16.07,20.83,23.25,24.55,3.38,1.83,7,3.51,10.53,5.13,11.77,5.43,22.86,10.54,26.87,21.79l.47,1.34h8.37l.48-1.34c4-11.23,15.08-16.34,26.82-21.76,3.54-1.63,7.19-3.31,10.63-5.17,5.9-3,15.82-8.18,21.29-23.06,5.88-16.06,5-39.32-2.73-71.1-.8-8.28,1.52-11.65,7.67-20.57l1.1-1.6.73-1.07ZM131.46,46c7.66,31.43,8.59,54.34,2.84,70-5.17,14.11-14.67,19-20.37,22-3.37,1.83-7,3.5-10.5,5.12C91.31,148.72,79.85,154,75.56,166.05H70C65.66,154,54.2,148.7,42.07,143.11c-3.5-1.61-7.11-3.28-10.48-5.1-6.91-3.58-16.74-9.91-22.32-23.52C2.53,98.05,3.84,75.27,13.18,46.76c.64-7-1.92-11.4-6.1-18.64-1.13-2-2.42-4.18-3.73-6.63l-1-1.81,1.25-1.6c.71-.91,1.71-2.43,2.75-4,2.43-3.72,5.19-7.94,7.77-9.89l2-1.5L18,4.37A43.08,43.08,0,0,0,47.71,16.62,39.23,39.23,0,0,0,71,9.06l1.74-1.29,1.73,1.29c7.41,5.48,15.51,8.38,23.45,8.38,9.25,0,17.9-3.79,25.71-11.25l1.81-1.73,2,1.51a45.87,45.87,0,0,1,12.19,14.64l.94,1.7-1.1,1.6C133.18,33.05,130.55,36.87,131.46,46Z"/><path class="cls-3" d="M125.68,8.43c-8.77,8.38-18.33,12.07-27.75,12.07-8.83,0-17.48-3.25-25.18-9a42,42,0,0,1-25,8.13A45.93,45.93,0,0,1,15.92,6.62C12.69,9.07,8.36,17,6,20,12,31.37,17.19,37,16.1,47.42-5.21,112.18,20.88,129,32.95,135.27c14.68,8,33.72,12.62,39.8,29.72,6.11-17.1,25.15-21.74,39.83-29.71,12.06-6.23,33.1-18.4,15.95-88.73-1.09-10.39,2-15,8.53-24.42C133,14.87,128.91,10.9,125.68,8.43Z"/><path class="cls-4" d="M137,22.16c-4.07-7.27-8.14-11.24-11.37-13.71-8.77,8.38-18.33,12.07-27.75,12.07-8.83,0-17.48-3.26-25.18-9-.08.06.09-.06,0,0V165c.09.23-.07-.23,0,0,6.11-17.1,25.15-21.74,39.83-29.7,12.06-6.23,33.1-18.41,15.95-88.72C127.43,36.19,130.55,31.59,137,22.16Z"/><path class="cls-2" d="M137,22.14C133,14.87,128.91,10.9,125.68,8.43c-8.77,8.38-18.33,12.07-27.75,12.07-8.83,0-17.48-3.25-25.18-9a42,42,0,0,1-25,8.13A45.93,45.93,0,0,1,15.92,6.62C12.69,9.07,8.36,17,6,20,12,31.37,17.19,37,16.1,47.42-5.21,112.18,20.88,129,32.95,135.27c14.68,8,33.72,12.62,39.8,29.72,6.11-17.1,25.15-21.74,39.83-29.71,12.06-6.23,33.1-18.4,15.95-88.73C127.43,36.17,130.55,31.57,137,22.14ZM72.75,160.06c-5.91-11.12-17.46-16.45-28.66-21.62-3.44-1.58-7-3.22-10.21-5-6.78-3.5-15.15-9-20-21C7.56,97.18,9,75.51,18,48.07l.08-.21,0-.22c.92-8.87-2.47-14.73-6.75-22.14-1-1.69-2-3.41-3-5.32.65-.93,1.38-2,2.19-3.28a64.08,64.08,0,0,1,5.41-7.53A47.78,47.78,0,0,0,47.71,21.73a44.28,44.28,0,0,0,25-7.69c7.94,5.57,16.62,8.51,25.19,8.51,9.88,0,19.49-4,27.84-11.45A41.41,41.41,0,0,1,134.68,22c-6,8.74-9.25,13.95-8.12,24.75v.14l0,.13c7.35,30.08,8.37,52.68,3,67.18-4.5,12.26-12.59,16.45-18,19.22-3.27,1.78-6.84,3.42-10.27,5C90.2,143.63,78.66,148.95,72.75,160.06Z"/><path class="cls-1" d="M106.14,129c-2.37,5.82-9-2.87-5.2-6.93,2.68-2.39,2.83-4.78,1.6-7.16-1.74-3.57-.51-5.86.92-8l.19-.12a3.27,3.27,0,0,0,1-1.47,6.23,6.23,0,0,0,.34-1.39c2.62-11.81-6.32-20.29-14.78-14.86-1.12-4-3.4-7.76-9.78-10.67a15,15,0,0,1-4.4-5.28,40.78,40.78,0,0,1-2.63-6.78c.56,1.24,1.26,2.83,4.1,2.19l3.38.69c1.45,1.24,2.43.71,3.2-.63-2,1.34-3-.4-2.65-2.54a6.59,6.59,0,0,0,0-3.36l.21,0a9.77,9.77,0,0,0,1,0c3,0,5.48-1.24,5.48-2.78a1.37,1.37,0,0,0,0-.25,1.42,1.42,0,0,0-.12-.35,2.4,2.4,0,0,1,.58,0,1.86,1.86,0,0,0,.8.3l.3,0A1.79,1.79,0,0,0,91,59.24a.89.89,0,0,0,.24-.36c2.18-2.91.53-3.83-.08-5.28,2.26.34,2.88-1.68,3.46-3.76-3,4.09-5.47.56-5-3.16l.07-.07a3.22,3.22,0,0,0,.59-2.08,4.45,4.45,0,0,0,0-.56,5.79,5.79,0,0,0-.13-.72,11.31,11.31,0,0,1,.13-1.37c.17-3.28-2.39-4.86-6.18-5.67l-3.37-6.49A3.68,3.68,0,0,0,76.05,28c-1.75-1-2.83-2.94-7.27-.35,0,0,0-.1,0-.14l-.55.44v-.08l-3.1-5.34a11,11,0,0,0,1.18,6.06l-.39.15C65.12,29.07,62.6,24,62.6,24a14.61,14.61,0,0,0,1.25,4.9L63.08,31c-.38,1-2.45.15-2.45.15.45,1.46,1.21,1.34,1.21,1.34-.44.81-.84.71-.84.71a1.51,1.51,0,0,0,.35.3c-1.57.85-3.15,1.7-2.85,3.57a28.14,28.14,0,0,0-1.81,2.36,9.36,9.36,0,0,0-.8,1.42,29.22,29.22,0,0,0-3.47,3.55c-.42.51-.66,1.11.37,2.41.41,1.12.77,2.33,2,1.86.55.56.86.69,1.41.46.69.46,1.59.26,2.39-.73a2.26,2.26,0,0,0,1.6-1.6c1.28-1.1,3-1.5,4.7-2a3.34,3.34,0,0,0,1.51.75c-.43,1.66-.35,3.32-6.53,5-3.44.63-5.87,2.27-7.28,5.25-1.53.94-3,1.91-3.72,3.77A4.3,4.3,0,0,1,47,58.22c-1.43-4.79-3.53-4.92-5.92-2.94a7.68,7.68,0,0,0-3.31,4.14c-1.45,1.64-3,3.2-4.53,4.71C31.32,66,29.84,68.28,31.5,72.8l1,1.15c.05,1.18.36,1.64.9,1.38.29-.06-1,3.22-.11,4.18a1.47,1.47,0,0,0,.55,1.12,7.64,7.64,0,0,0,2.21,5.25c.45.46.69,0,1.34.67q.66,1.61,1.3.93a1.34,1.34,0,0,1,1.29.79,5,5,0,0,0,1.22,2.2,17,17,0,0,0,3.28,2.43c.86-1.56.73-6.8-.71-9.24l-2,.15c-.76.11-1-.59-1.06-1.46,1.43-1.84-.2-1.63-1.26-1.71-2-.44-1.82-1.29-1.27-2.23l3.08-5.21c.66-1.16,2.46-2.35,3.77-.79,1.12,1.33,2.64,1,3.49,1.22a57.29,57.29,0,0,0,4,8.8c2.31,4.25,7.23,7.67,13.61,10.62A4.82,4.82,0,0,1,64.83,96c-1.25,1.44-1.56,3.67-1.06,6.13a17,17,0,0,0,2,6.4,12.37,12.37,0,0,1,0,3.47,5,5,0,0,1-.82,2.4,27.88,27.88,0,0,1-6,5.34c-1.45.14-2.49,1.12-3.38,2.58a.84.84,0,0,0-.15.26l-.26.46h0a1.88,1.88,0,0,1-.86.56,4.41,4.41,0,0,0-1.83,1.2c-1.26,1.41-2.62,2.84-2.91,4a17.3,17.3,0,0,0,7.56-.93,15.58,15.58,0,0,0,.37-2.66,3.54,3.54,0,0,0,1-1.25c.38-.3.78-.43.74.58a2.66,2.66,0,0,1-.54,1.24,1.36,1.36,0,0,0,1-.54.81.81,0,0,0,1-.21h0a4.07,4.07,0,0,0,.45-.5c.22-.27.45-.54.66-.82l.06-.08a3.58,3.58,0,0,0,.83-1.62c.63-1.21,3-2.9,5.39-4.59a20.15,20.15,0,0,0,2-.8,2.48,2.48,0,0,0,1.25-3.07,3.76,3.76,0,0,1-.57-2.14c.43-5.08,1.6-7.05,3.06-7.92a12.94,12.94,0,0,0,4.12,3.38c1.78,2.38,3.67,4.62,4.86,7.6a20.58,20.58,0,0,0-.24,5.21A7.39,7.39,0,0,1,80,123.93a28,28,0,0,1-3.2,2.44c-1.19.8-1.94,1.69-1.79,2.63a2,2,0,0,1-1.1,1.65c-.21.08-.4-.08-.68.24-1.26,1.44-2.2,2.63-2.18,3.72,2.34,1.25,8.4-.1,8.05-3.07a1.79,1.79,0,0,0,.32-1c.63-1.26,1-1.08,1.38-1.2a1.7,1.7,0,0,1,.26,1.15c.22,0,.44,0,.78-.58,2.36-1.21,2-2.57,2-3.91.14-2,1.92-5.54,4.46-9.87,2.12-3.37,1.16-4.35-.21-5-1.38-1.17-2-3.37-2.57-5.51-.41-1.94.6-3.77,1.84-5.6a16.14,16.14,0,0,0,3-6.89c2,.14,2.91.69,3.3,1.42a2.09,2.09,0,0,1,.19,1.06,5.73,5.73,0,0,0-.49.9,26.39,26.39,0,0,0-1.71,6.09c-.23,1.18-.35,2.31-.45,3.34,0,.28,0,.56-.06.82a5.32,5.32,0,0,0,.5,5.84,14.36,14.36,0,0,0,.28,11.08v.84a1.86,1.86,0,0,0,0,.2c-.51,3.55,2.38,6.95,6.12,7.63,1.42,1.51,2.68,1.84,3.79,1C107.39,134.87,106.13,131.85,106.14,129ZM45.69,66.18c-2.93-3.9-4.92-3.2-6.49-.4a8.34,8.34,0,0,0-1.71,5.16c-.37,1-.77,2-1.18,2.93A2.16,2.16,0,0,1,37,71.33c.58-1.15-.27-1.6-.61-2.09-1.68-1.18-1.27-1.92-.44-2.58L40.53,63c1-.81,3.08-1.21,3.78.75s2.8,2,3.17,2.91A4,4,0,0,1,45.69,66.18Z"/><text class="cls-5" transform="translate(162.34 40.45)">On<tspan class="cls-6" x="59.23" y="0">t</tspan><tspan class="cls-7" x="73.19" y="0">a</tspan><tspan class="cls-8" x="94.71" y="0">r</tspan><tspan x="111.78" y="0">io</tspan><tspan x="0" y="58.17">E</tspan><tspan class="cls-9" x="29.62" y="58.17">q</tspan><tspan x="53.22" y="58.17">ue</tspan><tspan class="cls-10" x="98.98" y="58.17">s</tspan><tspan x="117.45" y="58.17">t</tspan><tspan class="cls-8" x="130.92" y="58.17">r</tspan><tspan x="147.99" y="58.17">ian</tspan><tspan class="cls-11" x="0" y="116.33">F</tspan><tspan class="cls-12" x="26.9" y="116.33">r</tspan><tspan x="42.95" y="116.33">ede</tspan><tspan class="cls-12" x="110.23" y="116.33">r</tspan><tspan x="126.27" y="116.33">ation</tspan></text></svg>