<svg id="Layer_1" data-name="Layer 1" xmlns="http://www.w3.org/2000/svg" viewBox="0 0 461.15 368.92"><defs><style>.cls-1{fill:#fff;}</style></defs><title>instagram</title><path class="cls-1" d="M291.6,25.46h-122a98,98,0,0,0-98,98v122a98,98,0,0,0,98,98h122a98,98,0,0,0,98-98v-122A98,98,0,0,0,291.6,25.46Zm67.45,208.31a79.17,79.17,0,0,1-79.16,79.17H181.27a79.16,79.16,0,0,1-79.18-79.17V135.15A79.18,79.18,0,0,1,181.27,56h98.63a79.19,79.19,0,0,1,79.16,79.17Z"/><path class="cls-1" d="M234.84,101.26A83.76,83.76,0,1,0,318.6,185,83.75,83.75,0,0,0,234.84,101.26Zm0,134.15A50.39,50.39,0,1,1,285.23,185,50.4,50.4,0,0,1,234.84,235.41Z"/><path class="cls-1" d="M334.11,100A21.3,21.3,0,1,1,312.8,78.64,21.31,21.31,0,0,1,334.11,100Z"/></svg>