<svg id="Layer_1" data-name="Layer 1" xmlns="http://www.w3.org/2000/svg" viewBox="0 0 461.15 368.92"><defs><style>.cls-1{fill:#fff;}</style></defs><title>Untitled-1</title><path class="cls-1" d="M157.8,343.9c148.08,0,229-122.69,229-229.06,0-3.48-.05-7-.24-10.4a163.27,163.27,0,0,0,40.15-41.68,161.3,161.3,0,0,1-46.21,12.67,81,81,0,0,0,35.4-44.53,162,162,0,0,1-51.12,19.56,80.51,80.51,0,0,0-139.23,55,82.31,82.31,0,0,0,2.06,18.39A228.73,228.73,0,0,1,61.71,39.76,80.54,80.54,0,0,0,86.65,147.22a79.88,79.88,0,0,1-36.47-10.08c0,.36,0,.68,0,1a80.52,80.52,0,0,0,64.56,78.92,80.68,80.68,0,0,1-21.18,2.84,79.57,79.57,0,0,1-15.14-1.49,80.6,80.6,0,0,0,75.19,55.94,161.42,161.42,0,0,1-100,34.46,163.22,163.22,0,0,1-19.19-1.13A227.65,227.65,0,0,0,157.8,343.9"/></svg>